<svg xmlns="http://www.w3.org/2000/svg" viewBox="0 0 64 64" width="64" height="64" role="img" aria-label="ESP-KVM">
  <title>ESP-KVM</title>
  <rect width="64" height="64" rx="12" fill="#0e1116"/>
  <g fill="#e6edf3">
    <rect x="6" y="15" width="3" height="3"/>
    <rect x="9" y="15" width="3" height="3"/>
    <rect x="12" y="15" width="3" height="3"/>
    <rect x="15" y="15" width="3" height="3"/>
    <rect x="18" y="15" width="3" height="3"/>
    <rect x="6" y="18" width="3" height="3"/>
    <rect x="6" y="21" width="3" height="3"/>
    <rect x="9" y="21" width="3" height="3"/>
    <rect x="12" y="21" width="3" height="3"/>
    <rect x="15" y="21" width="3" height="3"/>
    <rect x="6" y="24" width="3" height="3"/>
    <rect x="6" y="27" width="3" height="3"/>
    <rect x="9" y="27" width="3" height="3"/>
    <rect x="12" y="27" width="3" height="3"/>
    <rect x="15" y="27" width="3" height="3"/>
    <rect x="18" y="27" width="3" height="3"/>
    <rect x="24" y="15" width="3" height="3"/>
    <rect x="27" y="15" width="3" height="3"/>
    <rect x="30" y="15" width="3" height="3"/>
    <rect x="33" y="15" width="3" height="3"/>
    <rect x="36" y="15" width="3" height="3"/>
    <rect x="24" y="18" width="3" height="3"/>
    <rect x="24" y="21" width="3" height="3"/>
    <rect x="27" y="21" width="3" height="3"/>
    <rect x="30" y="21" width="3" height="3"/>
    <rect x="33" y="21" width="3" height="3"/>
    <rect x="36" y="21" width="3" height="3"/>
    <rect x="36" y="24" width="3" height="3"/>
    <rect x="24" y="27" width="3" height="3"/>
    <rect x="27" y="27" width="3" height="3"/>
    <rect x="30" y="27" width="3" height="3"/>
    <rect x="33" y="27" width="3" height="3"/>
    <rect x="36" y="27" width="3" height="3"/>
    <rect x="42" y="15" width="3" height="3"/>
    <rect x="45" y="15" width="3" height="3"/>
    <rect x="48" y="15" width="3" height="3"/>
    <rect x="51" y="15" width="3" height="3"/>
    <rect x="54" y="15" width="3" height="3"/>
    <rect x="42" y="18" width="3" height="3"/>
    <rect x="54" y="18" width="3" height="3"/>
    <rect x="42" y="21" width="3" height="3"/>
    <rect x="45" y="21" width="3" height="3"/>
    <rect x="48" y="21" width="3" height="3"/>
    <rect x="51" y="21" width="3" height="3"/>
    <rect x="54" y="21" width="3" height="3"/>
    <rect x="42" y="24" width="3" height="3"/>
    <rect x="42" y="27" width="3" height="3"/>
    <rect x="6" y="33" width="3" height="3"/>
    <rect x="18" y="33" width="3" height="3"/>
    <rect x="6" y="36" width="3" height="3"/>
    <rect x="15" y="36" width="3" height="3"/>
    <rect x="6" y="39" width="3" height="3"/>
    <rect x="9" y="39" width="3" height="3"/>
    <rect x="12" y="39" width="3" height="3"/>
    <rect x="6" y="42" width="3" height="3"/>
    <rect x="15" y="42" width="3" height="3"/>
    <rect x="6" y="45" width="3" height="3"/>
    <rect x="18" y="45" width="3" height="3"/>
    <rect x="24" y="33" width="3" height="3"/>
    <rect x="36" y="33" width="3" height="3"/>
    <rect x="24" y="36" width="3" height="3"/>
    <rect x="36" y="36" width="3" height="3"/>
    <rect x="24" y="39" width="3" height="3"/>
    <rect x="36" y="39" width="3" height="3"/>
    <rect x="27" y="42" width="3" height="3"/>
    <rect x="33" y="42" width="3" height="3"/>
    <rect x="30" y="45" width="3" height="3"/>
    <rect x="42" y="33" width="3" height="3"/>
    <rect x="54" y="33" width="3" height="3"/>
    <rect x="42" y="36" width="3" height="3"/>
    <rect x="45" y="36" width="3" height="3"/>
    <rect x="51" y="36" width="3" height="3"/>
    <rect x="54" y="36" width="3" height="3"/>
    <rect x="42" y="39" width="3" height="3"/>
    <rect x="48" y="39" width="3" height="3"/>
    <rect x="54" y="39" width="3" height="3"/>
    <rect x="42" y="42" width="3" height="3"/>
    <rect x="54" y="42" width="3" height="3"/>
    <rect x="42" y="45" width="3" height="3"/>
    <rect x="54" y="45" width="3" height="3"/>
  </g>
</svg>
